<svg xmlns="http://www.w3.org/2000/svg" viewBox="0 0 389.73 183.75"><defs><style>.cls-1{fill:#eef4fb;}.cls-2{fill:#e2ebf7;}.cls-3{fill:#abd19a;}.cls-4{fill:#9eb9e0;}.cls-5{fill:#fff;}.cls-6{fill:#f89e59;}.cls-7{fill:#b2cbea;}.cls-8{fill:#82a6d7;}.cls-9{fill:#e0eaf7;}.cls-10{fill:#f7fcfe;}.cls-11{fill:#cee0f3;}.cls-12{fill:#c0d6ef;}.cls-13{opacity:0.5;}.cls-14,.cls-15{fill:#243962;}.cls-15{opacity:0.3;}.cls-16{fill:#182944;}.cls-17{fill:#2b488c;}.cls-18{fill:#a9312d;}.cls-19{fill:#a2c2dd;}.cls-20{fill:#ea6a61;}.cls-21{fill:#183660;}.cls-22{fill:#fab17e;}.cls-23{fill:#e9955c;}.cls-24{fill:#ecf3fb;}.cls-25{fill:#ec7e2a;}.cls-26{fill:#f89748;}.cls-27{fill:#18487f;}.cls-28{fill:#0c2442;}.cls-29{fill:#1c478a;}.cls-30{fill:#b74d42;}.cls-31{fill:#ee9960;}.cls-32{fill:#d35d2b;}.cls-33{fill:#ab453f;}.cls-34{fill:#cb7d45;}.cls-35{fill:#2e3652;}.cls-36{fill:#a1afd9;}.cls-37{fill:#e3915a;}.cls-38{fill:#b2c1e3;}.cls-39{fill:#c75548;}</style></defs><title>Asset 1</title><g id="Layer_2" data-name="Layer 2"><g id="Layer_1-2" data-name="Layer 1"><path class="cls-1" d="M387.18,134.27a110.91,110.91,0,0,1-7.43,36.61c-.63,1.67-4.14,12.3-5.73,12.3H283.59l-163.47,0q-48.41,0-96.81,0c-2.11,0-3.88-2.74-5.09-4.18a24.33,24.33,0,0,1-4.74-8.89,33.32,33.32,0,0,1,.3-19c1.29-4.44,4.06-8.91,6.15-12.27A81.7,81.7,0,0,1,36.73,120c7.43-6.3,17-12.1,20.64-21.59,5.41-14-3.87-27.82-2.61-42,2.12-23.59,25.56-41.22,46.15-49.18,16-6.17,33.64-7.66,50.61-7.12a183.89,183.89,0,0,1,24.79,2.48c7.48,1.27,16.3,2.57,23.16,6A101.45,101.45,0,0,1,237.73,34.2c5.24,5.5,9.89,11.68,15.62,16.7,6.83,6,13.82,5.77,22.33,4.12,16.18-3.17,32-6.63,48.4-2.64C340,56.24,353.63,65.89,364.9,77.46a78.46,78.46,0,0,1,22.28,56.81C387.16,135.09,387.28,129.21,387.18,134.27Z"/><path class="cls-2" d="M83.63,131.19s-12.4-3.07-17.27,4.62-14.61,8-19.72,14.18-9,17.32,2.67,22.83,40.76-2.58,40.76-2.58l5.56-35.86Z"/><path class="cls-3" d="M102.05,96.52s-1.66-10.23-10.43-14.4C86.36,79.61,70.56,77.75,71,89c.39,8.9-8.52,7.81-5,18.16,3,8.92,13.23,5.46,13.23,5.46Z"/><path class="cls-3" d="M369.91,156.48c-11.65-9.3-28.57,2-31.82-10.71s-18.58-13.62-18.58-13.62l-15.66,51H374c1.59,0,5.1-10.63,5.73-12.3.06-.14.11-.29.17-.44A32.51,32.51,0,0,0,369.91,156.48Z"/><rect class="cls-4" x="216.09" y="55.93" width="103.42" height="127.38"/><rect class="cls-1" x="226.4" y="62.16" width="93.11" height="13.88"/><rect class="cls-5" x="149.74" y="85.01" width="116.8" height="98.74"/><rect class="cls-5" x="146.85" y="81.43" width="121.52" height="3.59"/><rect class="cls-5" x="214" y="54.14" width="107.43" height="3.59"/><rect class="cls-6" x="149.74" y="93.94" width="75.57" height="18.35"/><rect class="cls-7" x="79.24" y="96.71" width="70.5" height="39.1"/><rect class="cls-7" x="79.24" y="143.95" width="70.5" height="39.1"/><rect class="cls-8" x="89.01" y="135.81" width="60.73" height="8.14"/><path class="cls-5" d="M160,109.71a6.62,6.62,0,1,1,4.67-1.94A6.57,6.57,0,0,1,160,109.71Zm0-12.62a6,6,0,1,0,4.24,1.76A5.93,5.93,0,0,0,160,97.09Z"/><polygon class="cls-5" points="164.29 102.01 161.09 102.01 161.09 98.82 158.94 98.82 158.94 102.01 155.74 102.01 155.74 104.17 158.94 104.17 158.94 107.36 161.09 107.36 161.09 104.17 164.29 104.17 164.29 102.01"/><path class="cls-5" d="M171.88,99.92h1.4v2.53h2.59V99.92h1.4v6.39h-1.4v-2.57h-2.59v2.57h-1.4Z"/><path class="cls-5" d="M178.52,103.12a3.31,3.31,0,0,1,3.41-3.31,3.31,3.31,0,1,1-3.41,3.31Zm5.32,0a1.94,1.94,0,0,0-1.93-2,1.92,1.92,0,0,0-1.92,2,1.94,1.94,0,0,0,1.94,2A1.91,1.91,0,0,0,183.84,103.12Z"/><path class="cls-5" d="M186.08,105.38l.83-1a2.88,2.88,0,0,0,1.9.78c.58,0,.92-.23.92-.62s-.22-.54-1.28-.81c-1.29-.33-2.12-.69-2.12-2a2,2,0,0,1,2.24-1.93,3.7,3.7,0,0,1,2.37.81l-.73,1.06a3,3,0,0,0-1.66-.63c-.54,0-.82.25-.82.58s.27.55,1.37.84c1.3.33,2,.8,2,1.93s-1,2-2.35,2A4.06,4.06,0,0,1,186.08,105.38Z"/><path class="cls-5" d="M192.35,99.92H195a2.19,2.19,0,0,1,2.44,2.23c0,1.48-1.15,2.24-2.58,2.24h-1.07v1.92h-1.4Zm2.52,3.22a1,1,0,0,0,1.11-1c0-.63-.44-1-1.14-1h-1.09v2Z"/><path class="cls-5" d="M198.51,99.92h1.4v6.39h-1.4Z"/><path class="cls-5" d="M203,101.22h-1.94v-1.3h5.29v1.3H204.4v5.09H203Z"/><path class="cls-5" d="M208.78,99.88h1.3l2.73,6.43h-1.46l-.59-1.43h-2.7l-.58,1.43h-1.43Zm1.48,3.76-.85-2.07-.84,2.07Z"/><path class="cls-5" d="M213.8,99.92h1.4V105h3.19v1.28H213.8Z"/><rect class="cls-7" x="272.41" y="136.53" width="47.1" height="31.08"/><rect class="cls-7" x="272.41" y="90.76" width="47.1" height="31.08"/><rect class="cls-7" x="227.38" y="62.9" width="92.13" height="12.25"/><polygon class="cls-9" points="149.74 86.25 266.54 89.77 266.54 85.01 149.74 85.01 149.74 86.25"/><rect class="cls-5" x="74.83" y="96.48" width="74.91" height="3.87"/><path class="cls-3" d="M74.72,167.07c-9.15,2.08-11.59,9.5-17.38,5.05s-13.1-1.49-17.06-1.3-3.36-9.1-11.89-12.07c-4.11-1.43-11-1.68-15.89-1.46a31.66,31.66,0,0,0,1,12.86A24.33,24.33,0,0,0,18.22,179c1,1.23,2.47,3.4,4.18,4H89.35C92.7,175,83.86,165,74.72,167.07Z"/><path class="cls-10" d="M50.35,41s6.19-7.27,21-6.46c0,0,21.5-12.12,44.43-1.62,0,0,24.37-2.6,42.43,2.25,12,3.24,16,6.64,16,6.64Z"/><path class="cls-10" d="M183.83,32.06a4.77,4.77,0,1,1,4.77,4.77A4.77,4.77,0,0,1,183.83,32.06Z"/><path class="cls-10" d="M121.82,62.29s3.39-4,11.51-3.54c0,0,11.77-6.63,24.33-.88,0,0,13.35-1.43,23.24,1.23,6.59,1.78,8.77,3.64,8.77,3.64Z"/><rect class="cls-4" x="167.91" y="139.86" width="82.07" height="42.88"/><rect class="cls-5" x="170.67" y="142.86" width="76.94" height="40.02"/><rect class="cls-7" x="173.58" y="145.39" width="71.27" height="9.2"/><rect class="cls-7" x="173.58" y="157.08" width="20.84" height="25.62"/><rect class="cls-7" x="196.41" y="157.08" width="25.62" height="25.62"/><rect class="cls-7" x="223.79" y="157.08" width="21.06" height="25.62"/><polygon class="cls-11" points="204.8 157.09 222.03 157.09 222.03 166.57 218.96 182.71 199.93 182.71 204.8 157.09"/><rect class="cls-5" x="199.77" y="161.96" width="19.17" height="20.78"/><rect class="cls-4" x="200.68" y="162.9" width="17.34" height="19.84"/><rect class="cls-5" x="209.03" y="162.9" width="0.65" height="19.84"/><path class="cls-5" d="M207.48,172.82a.41.41,0,0,1,.41-.41.41.41,0,0,1,.41.41.41.41,0,0,1-.41.41A.42.42,0,0,1,207.48,172.82Z"/><path class="cls-5" d="M210.4,172.82a.41.41,0,0,1,.82,0,.41.41,0,0,1-.82,0Z"/><polygon class="cls-11" points="180.21 157.09 190.76 157.09 187.4 182.71 176.85 182.71 180.21 157.09"/><polygon class="cls-11" points="192.3 145.39 191.09 154.59 180.54 154.59 181.75 145.39 192.3 145.39"/><polygon class="cls-11" points="228.78 157.09 239.33 157.09 235.96 182.71 225.41 182.71 228.78 157.09"/><polygon class="cls-11" points="240.86 145.39 239.66 154.59 229.1 154.59 230.31 145.39 240.86 145.39"/><polygon class="cls-11" points="226.06 145.39 224.31 154.59 205.28 154.59 207.03 145.39 226.06 145.39"/><polygon class="cls-11" points="223.81 158.97 223.85 158.97 223.81 159.18 223.81 158.97"/><path class="cls-3" d="M162.13,182.72a5.23,5.23,0,0,1,4-5.62c4.55-1.14,6.33-5.19,11.61-1.78s3.61,7.4,3.61,7.4Z"/><polygon class="cls-12" points="294.42 121.85 278.84 121.85 285.65 90.77 301.24 90.77 294.42 121.85"/><polygon class="cls-11" points="308.23 167.62 292.65 167.62 299.46 136.53 315.05 136.53 308.23 167.62"/><polygon class="cls-11" points="286.07 136.53 279.25 167.62 272.41 167.62 272.41 136.53 286.07 136.53"/><polygon class="cls-11" points="319.51 90.77 319.51 121.85 302.38 121.85 309.99 90.77 319.51 90.77"/><rect class="cls-1" x="249.94" y="62.9" width="1.3" height="12.25"/><rect class="cls-1" x="276.16" y="62.9" width="1.3" height="12.25"/><rect class="cls-1" x="301.73" y="62.9" width="1.3" height="12.25"/><g class="cls-13"><rect class="cls-4" x="87.5" y="110.75" width="7.81" height="12.33"/><path class="cls-5" d="M95.63,123.47H87V110.35h8.6Zm-7.81-.79h7V111.14h-7Z"/><rect class="cls-5" x="87.72" y="114.87" width="7.21" height="0.6"/><rect class="cls-5" x="87.72" y="118.97" width="7.21" height="0.6"/><rect class="cls-5" x="85.13" y="116.58" width="12.39" height="0.6" transform="translate(208.21 25.55) rotate(90)"/><rect class="cls-4" x="110.05" y="110.75" width="7.81" height="12.33"/><path class="cls-5" d="M118.18,123.47h-8.6V110.35h8.6Zm-7.81-.79h7V111.14h-7Z"/><rect class="cls-5" x="110.27" y="114.87" width="7.21" height="0.6"/><rect class="cls-5" x="110.27" y="118.97" width="7.21" height="0.6"/><rect class="cls-5" x="107.68" y="116.58" width="12.39" height="0.6" transform="translate(230.76 3) rotate(90)"/><rect class="cls-4" x="132.6" y="110.75" width="7.81" height="12.33"/><path class="cls-5" d="M140.73,123.47h-8.6V110.35h8.6Zm-7.81-.79h7V111.14h-7Z"/><rect class="cls-5" x="132.82" y="114.87" width="7.21" height="0.6"/><rect class="cls-5" x="132.82" y="118.97" width="7.21" height="0.6"/><rect class="cls-5" x="130.23" y="116.58" width="12.39" height="0.6" transform="translate(253.31 -19.55) rotate(90)"/></g><g class="cls-13"><rect class="cls-4" x="87.5" y="153.01" width="7.81" height="12.33"/><path class="cls-5" d="M95.63,165.74H87V152.62h8.6Zm-7.81-.8h7V153.41h-7Z"/><rect class="cls-5" x="87.72" y="157.14" width="7.21" height="0.6"/><rect class="cls-5" x="87.72" y="161.24" width="7.21" height="0.6"/><rect class="cls-5" x="85.13" y="158.85" width="12.39" height="0.6" transform="translate(250.48 67.82) rotate(90)"/><rect class="cls-4" x="110.05" y="153.01" width="7.81" height="12.33"/><path class="cls-5" d="M118.18,165.74h-8.6V152.62h8.6Zm-7.81-.8h7V153.41h-7Z"/><rect class="cls-5" x="110.27" y="157.14" width="7.21" height="0.6"/><rect class="cls-5" x="110.27" y="161.24" width="7.21" height="0.6"/><rect class="cls-5" x="107.68" y="158.85" width="12.39" height="0.6" transform="translate(273.03 45.27) rotate(90)"/><rect class="cls-4" x="132.6" y="153.01" width="7.81" height="12.33"/><path class="cls-5" d="M140.73,165.74h-8.6V152.62h8.6Zm-7.81-.8h7V153.41h-7Z"/><rect class="cls-5" x="132.82" y="157.14" width="7.21" height="0.6"/><rect class="cls-5" x="132.82" y="161.24" width="7.21" height="0.6"/><rect class="cls-5" x="130.23" y="158.85" width="12.39" height="0.6" transform="translate(295.58 22.72) rotate(90)"/></g><rect class="cls-9" x="147.92" y="126.89" width="122.06" height="4.3"/><path class="cls-3" d="M107.76,96.48s2.11-6.87,7.31-6.71,6.82,4.94,8.6,4.17,7-.32,7.31,2.54Z"/><path class="cls-14" d="M355.17,159.07V162a1.62,1.62,0,0,1-1.63,1.63H353a1.63,1.63,0,0,1-1.63-1.63v-2.91a1.61,1.61,0,0,1,.24-.84h0a1.6,1.6,0,0,1,1.39-.79h.52A1.63,1.63,0,0,1,355.17,159.07Z"/><path class="cls-15" d="M355,162.71a1.64,1.64,0,0,1-1.46.9H353a1.63,1.63,0,0,1-1.63-1.63v-2.91a1.61,1.61,0,0,1,.24-.84C351.66,158.41,352.35,162.4,355,162.71Z"/><polygon class="cls-16" points="329.32 180.37 337.38 180.37 337.38 172.23 328.98 172.23 329.32 180.37"/><path class="cls-5" d="M354.74,163.17l-39.6,1V143.27h26a6.6,6.6,0,0,1,5.88,3.6l1.7,3.32Z"/><path class="cls-14" d="M332.24,179a13,13,0,0,0,1.14,4.65h1.93c1.69,0,3.07-2.08,3.07-4.65s-3.3-4.64-5-4.64S332.24,176.48,332.24,179Z"/><path class="cls-17" d="M330.32,179c0,2.57,1.37,4.65,3.06,4.65s3.07-2.08,3.07-4.65-1.37-4.64-3.07-4.64S330.32,176.48,330.32,179Z"/><path class="cls-7" d="M331.11,179c0,1.94,1,3.5,2.31,3.5s2.31-1.56,2.31-3.5-1-3.49-2.31-3.49S331.11,177.11,331.11,179Z"/><path class="cls-14" d="M354.41,179a13,13,0,0,0,1.14,4.65h1.93c1.69,0,3.07-2.08,3.07-4.65s-3.31-4.64-5-4.64S354.41,176.48,354.41,179Z"/><path class="cls-17" d="M352.48,179c0,2.57,1.38,4.65,3.07,4.65s3.07-2.08,3.07-4.65-1.38-4.64-3.07-4.64S352.48,176.48,352.48,179Z"/><path class="cls-14" d="M303.51,179a13.09,13.09,0,0,0,1.13,4.65h1.93c1.7,0,3.07-2.08,3.07-4.65s-3.3-4.64-5-4.64S303.51,176.48,303.51,179Z"/><path class="cls-17" d="M301.58,179c0,2.57,1.37,4.65,3.06,4.65s3.07-2.08,3.07-4.65-1.37-4.64-3.07-4.64S301.58,176.48,301.58,179Z"/><path class="cls-5" d="M363.6,176.85a3.52,3.52,0,0,1-3.51,3.52H337.38a6.59,6.59,0,0,0,.1-1.19c0-3-1.8-5.43-4-5.43s-4,2.43-4,5.43a6.59,6.59,0,0,0,.1,1.19H316.27s-.54-5.93-.47-8.9c.05-2.58.05-7.65-.1-8.89,0-.18,12.8-.2,16-.22h.72l.05,0,.05,0c.59.41,3.93,2.75,6,4.12,1.83,1.21,15.32,1.7,20.61,1.85l2.13,0a9.6,9.6,0,0,1,1.36,1.91,7.27,7.27,0,0,1,.94,3.35c0,.79,0,1.75,0,2.68Z"/><path class="cls-4" d="M351.54,162.36H333.75a1,1,0,0,1-.95-.61l-4.41-9.8a.49.49,0,0,1,.44-.69H347.6a1.05,1.05,0,0,1,1,.63l3.15,7.21.79,1.8A1,1,0,0,1,351.54,162.36Z"/><path class="cls-9" d="M343.26,176.39c0,.31,0,.6,0,.86a5.41,5.41,0,0,1-1.84,3.12h-4a6.59,6.59,0,0,0,.1-1.19,7.12,7.12,0,0,0-.56-2.79,3.58,3.58,0,0,0-6.91,0,7,7,0,0,0-.57,2.79,6.59,6.59,0,0,0,.1,1.19h-14.4v-37.1H326.7l.05,6.92a11.49,11.49,0,0,0,.59,2c.36.83.83,1.93,1.34,3.13,1.05,2.45,2.28,5.32,3.05,7.09.38.89.65,1.5.72,1.63.22.41,3.43,2.15,6.14,3.69l1.88,1.09a14.23,14.23,0,0,1,1.72,1.16C342.93,170.6,343.29,174.07,343.26,176.39Z"/><polygon class="cls-5" points="361.29 168.45 340.2 168.45 332.5 162.39 332.45 162.36 353.73 162.36 359.78 167.23 361.29 168.45"/><path class="cls-18" d="M342.93,172l-1.91-.19a1.51,1.51,0,0,1-1.32-1.23l-.44-2.41a.37.37,0,0,1,0-.11,23.5,23.5,0,0,1,2.94,1.87A4.28,4.28,0,0,1,342.93,172Z"/><path class="cls-5" d="M348.72,150.19h-22a12.52,12.52,0,0,0-.63-3,7.2,7.2,0,0,0-2.83-3.91h18a7.06,7.06,0,0,1,6.55,3.91,1.48,1.48,0,0,1,.12.29A17.92,17.92,0,0,1,348.72,150.19Z"/><path class="cls-19" d="M342.93,172l-1.91-.19a1.51,1.51,0,0,1-1.32-1.23l-.44-2.41a.37.37,0,0,1,0-.11,23.5,23.5,0,0,1,2.94,1.87A4.28,4.28,0,0,1,342.93,172Z"/><path class="cls-14" d="M363.6,176.85a3.6,3.6,0,0,1-3.68,3.52H337.38a6.59,6.59,0,0,0,.1-1.19,7,7,0,0,0-.57-2.79H363.6Z"/><path class="cls-14" d="M329.44,179.18a6.59,6.59,0,0,0,.1,1.19h-14.4v-4H330A7,7,0,0,0,329.44,179.18Z"/><path class="cls-14" d="M348.75,168.62h8.63c.27,0,.48.37.44.78l-.31,3c0,.44-.29.77-.59.77h-7.1c-.46,0-.86-.46-1-1.11l-.51-2.55C348.23,169.07,348.45,168.62,348.75,168.62Z"/><path class="cls-7" d="M351.71,159.1a31.75,31.75,0,0,1-19.13-7.84h15a1.05,1.05,0,0,1,1,.63Z"/><rect class="cls-5" x="280.74" y="143.27" width="38.48" height="37.1"/><path class="cls-9" d="M348.72,150.19h-22a12.52,12.52,0,0,0-.63-3H347.8a1.48,1.48,0,0,1,.12.29A17.92,17.92,0,0,1,348.72,150.19Z"/><path class="cls-14" d="M362.65,170.36a.7.7,0,0,1-.45.36l-3,.55c-.25,0-.44-.39-.38-.83l.29-2v0l.06-.41a.84.84,0,0,1,.39-.69l.17-.07,1.51,1.22A9.6,9.6,0,0,1,362.65,170.36Z"/><rect class="cls-20" x="280.74" y="167.69" width="61.45" height="3.13"/><rect class="cls-20" x="280.74" y="149.7" width="38.48" height="3.13"/><path class="cls-20" d="M294.5,160.19a5.48,5.48,0,1,1,5.47,5.48A5.47,5.47,0,0,1,294.5,160.19Z"/><path class="cls-5" d="M300,165a4.85,4.85,0,1,1,3.43-1.42A4.82,4.82,0,0,1,300,165Zm0-9.25a4.4,4.4,0,0,0,0,8.8,4.4,4.4,0,1,0,0-8.8Z"/><polygon class="cls-5" points="303.11 159.4 300.76 159.4 300.76 157.06 299.18 157.06 299.18 159.4 296.84 159.4 296.84 160.98 299.18 160.98 299.18 163.32 300.76 163.32 300.76 160.98 303.11 160.98 303.11 159.4"/><path class="cls-14" d="M346.55,172.37l-3.62-.36h0l-1.91-.19a1.51,1.51,0,0,1-1.32-1.23l-.44-2.41a.37.37,0,0,1,0-.11h0a.81.81,0,0,1,1-.82l5.64,1.14a1,1,0,0,1,.74.7l.66,2.44A.67.67,0,0,1,346.55,172.37Z"/><path class="cls-4" d="M326.83,153l3.79,9.33h-6.5s-1.34-.22-1.51-3c-.18-2.91-.18-7.93-.18-7.93h2.85C326.37,151.63,326.54,152.23,326.83,153Z"/><path class="cls-14" d="M328.69,157.57s.33,3.77-1.53,4.8h3.48Z"/><path class="cls-14" d="M329.2,160.09s-.78-.56-.85-1v2.64h1Z"/><path class="cls-14" d="M328.35,159.07V162a1.63,1.63,0,0,1-.17.73,1.65,1.65,0,0,1-1.46.9h-.52a1.64,1.64,0,0,1-1.64-1.63v-2.91a1.61,1.61,0,0,1,.24-.84h0a1.63,1.63,0,0,1,1.4-.79h.52A1.63,1.63,0,0,1,328.35,159.07Z"/><path class="cls-14" d="M319.25,179.18a3.94,3.94,0,0,0,.18,1.19H292.94v-4H320.3A4.43,4.43,0,0,0,319.25,179.18Z"/><path class="cls-14" d="M307.05,179.18a3.94,3.94,0,0,0,.18,1.19H280.74v-4H308.1A4.43,4.43,0,0,0,307.05,179.18Z"/><path class="cls-16" d="M293.3,180.37h-9.46c-.2-.85-.8-6.94,4.5-6.94C293.16,173.43,293.52,179,293.3,180.37Z"/><path class="cls-14" d="M286.8,179a13,13,0,0,0,1.14,4.65h1.93c1.69,0,3.07-2.08,3.07-4.65s-3.31-4.64-5-4.64S286.8,176.48,286.8,179Z"/><path class="cls-17" d="M284.87,179c0,2.57,1.38,4.65,3.07,4.65S291,181.61,291,179s-1.38-4.64-3.07-4.64S284.87,176.48,284.87,179Z"/><path class="cls-7" d="M285.67,179c0,1.94,1,3.5,2.31,3.5s2.31-1.56,2.31-3.5-1-3.49-2.31-3.49S285.67,177.11,285.67,179Z"/><path class="cls-21" d="M224.72,140.92c-.2-.38,4.28-1.74,4.35,2,0,0,8.38-.21,4.38-4.88a5.17,5.17,0,0,1-1.21-4.2c0-1.24-.86-4.86-4-4.49a2.28,2.28,0,0,0-1.83.19C224.15,130.73,219,142.29,224.72,140.92Z"/><path class="cls-22" d="M238.42,145.09s.54-.83,1-.85,1.26-.24,1.19-.08-.57.18-.62.28.75.24,1,.26.77,0,.75.11a2.54,2.54,0,0,1-1.64.52,4.65,4.65,0,0,0-1.5.2Z"/><path class="cls-21" d="M230.53,145.36a9.07,9.07,0,0,0,.83,1.26,4.87,4.87,0,0,0,2.91,1.93,3.08,3.08,0,0,0,1.72-.28h0a7.72,7.72,0,0,0,2.67-2.23,1.25,1.25,0,0,0-.17-1.23,21,21,0,0,1-3.37.55c-.29-.15-2-5.07-2.41-5.69s-1.79-.94-1.79-.94Z"/><path class="cls-14" d="M219.05,178.58s-.94.85-.76,1.46,1,1,1.15,1.76.57,1.15,1,1.15h2s.3-.52-.43-.68-1-1-1-1.84a14.24,14.24,0,0,0-.06-1.9l-1.56-.36Z"/><path class="cls-14" d="M227,178.94s-.34,3.63.07,3.83h5.28s0-.61-.85-.74-2.34-.63-2.59-1.74S227,178.94,227,178.94Z"/><path class="cls-22" d="M223.24,152.9c1.08-2.44,1.75-3.14,1.62-3.89-.09-.57.29-10.49.29-10.49s.38-.08.53-.11a1.32,1.32,0,0,0,1-.84,6.7,6.7,0,0,0,.33-2.24l.14,0,2.34.46s0,.74-.06,1.43v0a1.36,1.36,0,0,0,1,1.3l.56.16a21.26,21.26,0,0,1,1,5c.16,2.52-1.56,3.61,0,8.64S222.64,154.24,223.24,152.9Z"/><path class="cls-23" d="M229.45,135.82s0,.74-.06,1.43a2.78,2.78,0,0,1-2.28-1.89Z"/><path class="cls-22" d="M229.89,136.48s-3.1.05-3.1-1.88-.41-3.22,1.57-3.33,2.36.62,2.52,1.26S230.69,136.41,229.89,136.48Z"/><path class="cls-21" d="M229.77,131.22s-.85,2.26-2.15,2.6a2.55,2.55,0,0,1-1.86,0,3.7,3.7,0,0,0,1.2-2.18S229.13,130.14,229.77,131.22Z"/><path class="cls-21" d="M229.56,131.4a2,2,0,0,1,.89.7,3.12,3.12,0,0,1,.42,1.77s.64-1.54-.08-2.41S229.56,131.4,229.56,131.4Z"/><path class="cls-24" d="M229.21,135.28a.79.79,0,0,0,.64.26.55.55,0,0,0,.48-.31A2.13,2.13,0,0,0,229.21,135.28Z"/><path class="cls-21" d="M223.66,142.91s0,1.47.09,2.8a8.25,8.25,0,0,0,.26,2c.32.74.67.85.67.85l2.77.68,1,.24,3.07-.92s1.4-3.9.84-6.1a16.64,16.64,0,0,0-1.42-3.72s-2.51,2.45-5.77-.21Z"/><path class="cls-25" d="M231.3,149.15a44.39,44.39,0,0,1,1.62,6.34c.1,1.62-2.9,22.9-3,23.65s-1,1.14-1,1.14a1.31,1.31,0,0,1-1,.08,2.5,2.5,0,0,1-1-.49s-1.19-15.19-.45-20.61a86.33,86.33,0,0,0,.74-10.11Z"/><path class="cls-26" d="M224.86,149s-2.32,3.11-2.54,5.21-.34,9.5-.8,11.55-2.15,6-2.15,12.4a1.23,1.23,0,0,0,.72.56,4,4,0,0,0,.63.18,1,1,0,0,0,1.11-.53c1.15-2.3,4.79-9.74,5-11.28.13-1.09,1.29-8.32,3.8-12.56.6-1-.37-5.07-.37-5.07Z"/><path class="cls-5" d="M229.28,135.33s.05.23.62.2c0,0,.47,0,.46-.28A1.53,1.53,0,0,0,229.28,135.33Z"/><path class="cls-14" d="M231.55,148.42a3.19,3.19,0,0,1-1.83.5c-1.45,0-5-.37-5-.37a2.94,2.94,0,0,0-.15.92s4.39,1.11,6.93.16A1.63,1.63,0,0,0,231.55,148.42Z"/><path class="cls-5" d="M229.41,149.42a.67.67,0,1,1,.66.75A.71.71,0,0,1,229.41,149.42Zm.22,0a.45.45,0,1,0,.88,0,.45.45,0,1,0-.88,0Z"/><rect class="cls-21" x="219.42" y="153.32" width="7.06" height="3.96" transform="translate(408.15 354.1) rotate(-167.83)"/><path class="cls-27" d="M226.81,154.11a5.07,5.07,0,0,1-4.07,1,4.3,4.3,0,0,1-2.83-2.54Z"/><path class="cls-27" d="M225.46,153.86a.39.39,0,0,1,.39-.39.39.39,0,0,1,0,.77A.39.39,0,0,1,225.46,153.86Zm.13,0a.26.26,0,0,0,.26.25.26.26,0,0,0,0-.51A.26.26,0,0,0,225.59,153.86Z"/><path class="cls-22" d="M220.23,154.34a3,3,0,0,1-.11.83c-.1.27-.42.63-.53.63s.1-.56,0-.55-.31.94-.49,1-.36-1-.26-1.46a2.9,2.9,0,0,1,.52-.91Z"/><path class="cls-21" d="M225.15,138.52a3.76,3.76,0,0,0-2.64,2c-.71,1.4-1.2,5.82-1.7,7.21a43.69,43.69,0,0,0-1.52,6,.36.36,0,0,0,.21.38l.63.25a.31.31,0,0,0,.37-.13,50.74,50.74,0,0,0,3.53-6.88,11.55,11.55,0,0,1,2.57-4.13Z"/><path class="cls-28" d="M226,153.56c0-.06.41-6.36.33-9.9a14.92,14.92,0,0,0-.56-3.94,2.82,2.82,0,0,0-.65-1.2l-.13,0a10.1,10.1,0,0,1,1.15,5.1c.07,3.54-.33,9.82-.33,9.89Z"/><path class="cls-22" d="M118.84,179.61l-1-.32a30.63,30.63,0,0,1,.24-5.83,18.63,18.63,0,0,1,1.69-6,7.62,7.62,0,0,1,1.51-2.06l1.75-4.08c1.1-2.59,8-3.34,4.07,2.08-.81,1.11-1.68,3.07-2.72,4.26a23.62,23.62,0,0,0-3.9,6.5A29.34,29.34,0,0,0,118.84,179.61Z"/><path class="cls-22" d="M116.62,179.76c-.3.48.34,1,1.13,1.39s.47.49,1.48,1.25,1.61.67,1.76.56-.27-.57-.71-1.08c0-.06-.11-.12-.16-.19a5.38,5.38,0,0,1-.79-2.07,8.08,8.08,0,0,1,.13-2.49l-1.35-1.08s-.28,1.62-.43,2.3a2.1,2.1,0,0,1-.67,1A1.81,1.81,0,0,0,116.62,179.76Z"/><path class="cls-29" d="M117.75,181.15c.79.45.47.49,1.48,1.25s1.61.67,1.76.56-.27-.57-.71-1.08h0a3.53,3.53,0,0,1-1.7-.82c-.63-.56-1.13-1.36-1.56-1.75a1.81,1.81,0,0,0-.39.44C116.32,180.24,117,180.71,117.75,181.15Z"/><path class="cls-22" d="M113.06,181.34l-1.13.58a19.3,19.3,0,0,1-1.27-1.94,7.24,7.24,0,0,1-.91-2.26c-.23-1.66-2-4.38-1.8-4.84s3.66-1.27,3.66-1.27.68,4.66,1.14,7.67C112.88,180.16,113,180.89,113.06,181.34Z"/><path class="cls-17" d="M112.2,174.83a6.86,6.86,0,0,1-1.75.6,5.88,5.88,0,0,1-1.6.1l-.14,0a6.38,6.38,0,0,1-1.35-1.5,11.59,11.59,0,0,1-1.16-2.36l5.31-.52Z"/><path class="cls-14" d="M110.45,175.43a5.88,5.88,0,0,1-1.6.1l.6-2.32A8.55,8.55,0,0,1,110.45,175.43Z"/><path class="cls-5" d="M113.06,181.34l-1.13.58a19.3,19.3,0,0,1-1.27-1.94,4.49,4.49,0,0,0,2.09-.7C112.88,180.16,113,180.89,113.06,181.34Z"/><path class="cls-22" d="M110.5,172.67a18.86,18.86,0,0,0-2.29,4.84,6.94,6.94,0,0,1-1.59,2.23c-.68.71-1.36,1.34-1.62,1.65l-1.15-.55a16.19,16.19,0,0,1,1-2.21,6.2,6.2,0,0,1,.74-1.06c.36-.41.24-5.58.61-5.92S110.5,172.67,110.5,172.67Z"/><path class="cls-17" d="M111.18,171.48l-2.1,4.27a6,6,0,0,1-2.68-.57,2.76,2.76,0,0,1-.91-.77l.65-2.93Z"/><path class="cls-30" d="M107.41,157.21a1.66,1.66,0,0,0-2.44-.61c-1.73.89,0,4.31-1,5.15s.33,1.39.14,2,.34,1.29,1.55,1.21,2.48,0,3-1.07a6.43,6.43,0,0,0,.21-3.72C108.74,159.85,107.41,157.21,107.41,157.21Z"/><path class="cls-22" d="M107.27,163.46Z"/><path class="cls-22" d="M110.21,165.23l-2.94-1.77s.08-.1.3-.73a4.54,4.54,0,0,0,.17-.69V162a2,2,0,0,0,0-.43l.65.24,1.19.43a1.34,1.34,0,0,0,.09.66.52.52,0,0,0,.45.35Z"/><path class="cls-31" d="M109.68,162.88a2.19,2.19,0,0,1-1.94-.84l0,0h0l.66-.19,1.19.43A1.34,1.34,0,0,0,109.68,162.88Z"/><path class="cls-22" d="M109.74,162.46s-2.56.29-2.61-1.44-.43-2.52,1.34-2.68,2.18.49,2.29,1.07C111.08,161.24,110.46,162.39,109.74,162.46Z"/><path class="cls-32" d="M105,156.6l-.06-.13A.81.81,0,0,1,105,156.6Z"/><path class="cls-22" d="M110.56,163.41a16.15,16.15,0,0,0,2.71-2.51,20.49,20.49,0,0,1,1.68-3.14s.61-.08.69.35a11.15,11.15,0,0,1-1,3.68,18.62,18.62,0,0,1-3.43,3.69Z"/><path class="cls-22" d="M116.51,156.61a1.24,1.24,0,0,1-.23.57,6.6,6.6,0,0,0-.49.7l-.15.22-.69-.34s0-1.18.44-1.43h0a2.9,2.9,0,0,1,.54-.23.81.81,0,0,1,.49,0C116.55,156.13,116.56,156.37,116.51,156.61Z"/><path class="cls-30" d="M108.6,159.19c-.9-.23-.55,1.37-.78,1.26s-.7-.12-.63.19a6.28,6.28,0,0,0,.22.61c0,.19,0,.58-.21.5s-2.16-2.31-.78-4.05,5.5-.67,4.2,1.15A2.64,2.64,0,0,1,108.6,159.19Z"/><path class="cls-26" d="M111.89,172.11a4.39,4.39,0,0,1-2,.39,13.68,13.68,0,0,1-3.46-.73c-.6-.22-1-.45-1-.64s.59-2.42,1.06-4.4l.83-3.5s1.2.86,1.9.56.61-.64.61-.64a1.38,1.38,0,0,1,.67-.12c.21.07.82-.28.82-.28a2.18,2.18,0,0,1,.7,1.63,3.44,3.44,0,0,1,0,.54l-.48.56A14.88,14.88,0,0,1,111.89,172.11Z"/><path class="cls-33" d="M114.93,182.72h-3.37a4.33,4.33,0,0,1,0-1,.37.37,0,0,1,.08-.15,1.17,1.17,0,0,0,.81,0,1.71,1.71,0,0,0,.59-.37s.73.7,1.06.7A.75.75,0,0,1,114.93,182.72Z"/><path class="cls-5" d="M106.62,179.74c-.68.71-1.36,1.34-1.62,1.65l-1.15-.55a16.19,16.19,0,0,1,1-2.21A2.47,2.47,0,0,0,106.62,179.74Z"/><path class="cls-33" d="M105.25,181.09s0,.73.2.83.7.34.7.8h-1.69a6.24,6.24,0,0,1-1.31-.81c-.16-.25.77-1.28.77-1.28A1.51,1.51,0,0,0,105.25,181.09Z"/><path class="cls-22" d="M108,169.22a2,2,0,0,1,1,.05c.29.19.37.48.16.6a1.34,1.34,0,0,1-1.31,0Z"/><path class="cls-22" d="M107.41,163.47s-2.27.48-3.17,4a1.09,1.09,0,0,0,.25,1,5.13,5.13,0,0,0,3.43,1.37c.23,0,.26-.56.26-.56a15.27,15.27,0,0,1-2-1.42.33.33,0,0,1,0-.41,11.57,11.57,0,0,0,.66-1.12C107,165.91,108.05,163.65,107.41,163.47Z"/><path class="cls-26" d="M107.39,163.23a3.68,3.68,0,0,0-2.43,1.55,2.65,2.65,0,0,0,2.1,1.7S108.13,164.07,107.39,163.23Z"/><path class="cls-30" d="M125.61,128.7a3.72,3.72,0,0,0-3.58,1.93c-1.2,2.22-1.1,5.44-2.27,7a2.32,2.32,0,0,0,.2,3l9.06.3a6.29,6.29,0,0,0,0-3.73C128.39,135.08,131.46,129,125.61,128.7Z"/><path class="cls-23" d="M133.28,155.64c-.09.36-.39,1.16-.63,1.16s-.26-1-.51-1.19a2.8,2.8,0,0,1-.69-1.09.85.85,0,0,0-.19-.38h0s-2.87-5.24-3.09-6.58c-.07-.43-.26-1.31-.48-2.29s-.52-2.26-.73-3.15a17,17,0,0,1,2.75-.26c.17,1.09.32,2.2.45,3.16a28,28,0,0,0,.43,2.78c.25.66.94,4.18,1.58,6a2.27,2.27,0,0,0,.52.81C133,154.82,133.38,155.29,133.28,155.64Z"/><path class="cls-22" d="M128.09,150.47c-1.58-5.05,1.6-5,1.44-7.52a12.33,12.33,0,0,0-2.12-5.25l-.2,0a.21.21,0,0,1-.15-.11,4.35,4.35,0,0,1-.09-1.1c0-.69.06-1.43.06-1.43l-2.35-.47-.14,0a6,6,0,0,1-.47,2.57.75.75,0,0,1-.6.43,9.85,9.85,0,0,0-2,.48,1.09,1.09,0,0,0-.59.43,45.1,45.1,0,0,0-1.74,7.56,27.77,27.77,0,0,1-.55,2.76c-.28.65-1.13,4.25-1.86,6l.93.28s3.08-5.11,3.36-6.44c.09-.43.32-1.3.58-2.27l.12-.45a7.32,7.32,0,0,1,.68,2.38c0,.77-.54,1.46-1.63,3.91C120.18,153.55,129.71,155.64,128.09,150.47Z"/><path class="cls-23" d="M127,135s-.06.74-.06,1.43a2.76,2.76,0,0,1-2.29-1.9Z"/><path class="cls-22" d="M127.47,135.7s-3.12.05-3.12-1.89-.4-3.24,1.58-3.35,2.38.62,2.53,1.27S128.27,135.63,127.47,135.7Z"/><path class="cls-22" d="M131.81,180.87l-1,.24a31,31,0,0,1-2.88-5.08,19,19,0,0,1-1.69-5.95,7.9,7.9,0,0,1,.2-2.55s-.28-1.88-.66-4.38c-.42-2.79-1-6.34-1.4-9l.26-.08,4.24-2.48a25.27,25.27,0,0,1,1.46,11.14c-.1,1.37.19,3.49-.07,5a23.58,23.58,0,0,0,.11,7.58A28.77,28.77,0,0,0,131.81,180.87Z"/><path class="cls-34" d="M121.55,145.41a9.66,9.66,0,0,1,.86,2.88,8,8,0,0,1,5.22-3.32l-6.37-.72A5.33,5.33,0,0,0,121.55,145.41Z"/><path class="cls-30" d="M128.37,130.65c-.48-.58-.84-.45-1-.28a2.2,2.2,0,0,0-2.8.45,3.73,3.73,0,0,1-1.21,2.19,3,3,0,0,0,1.87,0,3.05,3.05,0,0,0,2.06-2.33,2.36,2.36,0,0,1,.68.91c.16.49.23,1.5.52,1.47C128.45,133.07,129.09,131.52,128.37,130.65Z"/><path class="cls-22" d="M116.8,154.64a2.31,2.31,0,0,1-.58.85c-.29.19-.71.64-.64,1s.16.92.53.92,1.25-1.65,1.36-2a.9.9,0,0,1,.2-.38Z"/><path class="cls-5" d="M131.46,169.35c-3.75,2.14-13.64-1.27-13.63-1.47,0-1,1-7.38,2.12-13.41.68-3.72,2.51-5.1,2.22-5.34h0c-1.12-.8-.64-2.17-.56-2.66a3.78,3.78,0,0,1-2.74-.4c.52-2.58,1.27-6.18,2-7.61a.59.59,0,0,1,.19-.2h0a5.69,5.69,0,0,1,2.14-.67,23,23,0,0,0,1,2.2c1.54,1.91,4.29,1.05,3.92-.15a20.69,20.69,0,0,0-.92-1.95,1.36,1.36,0,0,1,.2,0l1,.15c.46.07.58.13.69.22a4.72,4.72,0,0,1,1,3.21c0,.67.71,8.05-1.54,7.92-.05,0,0,.12.09.35a16,16,0,0,1,1.48,4.92C131,162.12,131.46,169.35,131.46,169.35Z"/><path class="cls-5" d="M126.57,134.55s.06.24.66.2c0,0,.49,0,.48-.3A1.58,1.58,0,0,0,126.57,134.55Z"/><path class="cls-22" d="M117.47,155.45s-.1.75-.3.92-.23.49-.43.32S117.47,155.45,117.47,155.45Z"/><path class="cls-22" d="M130,182.17c0,.56.8.62,1.7.58s.65.17,1.91.28,1.72-.28,1.8-.45-.53-.34-1.17-.54L134,182a5.46,5.46,0,0,1-1.76-1.34,8,8,0,0,1-1.2-2.19l-1.72-.2s.62,1.52.85,2.17a2.09,2.09,0,0,1-.07,1.19A2.2,2.2,0,0,0,130,182.17Z"/><path class="cls-29" d="M131.69,182.75c.91,0,.65.17,1.91.28s1.72-.28,1.8-.45-.53-.34-1.17-.54h0a3.5,3.5,0,0,1-1.87.2c-.84-.15-1.68-.56-2.26-.66a2.2,2.2,0,0,0-.1.58C130,182.73,130.79,182.79,131.69,182.75Z"/><path class="cls-26" d="M131.46,169.35c-3.75,2.14-13.64-1.27-13.63-1.47,0-1,1-7.38,2.12-13.41.68-3.72,2.51-5.1,2.22-5.34a4.52,4.52,0,0,0,3.07.8,33.4,33.4,0,0,0,3.41-.38,16,16,0,0,1,1.48,4.92C131,162.12,131.46,169.35,131.46,169.35Z"/><path class="cls-25" d="M122.16,149.13a9.63,9.63,0,0,0,6.4.07l.17.52a10.47,10.47,0,0,1-6.7-.16Z"/><rect class="cls-35" y="182.72" width="389.73" height="1.03" rx="0.52"/><path class="cls-14" d="M257.77,183.09h-3.33a7.07,7.07,0,0,1,.27-1.2,3.41,3.41,0,0,1,.18-.48c.33-.64,2.39-.23,2.39-.23a1.57,1.57,0,0,1,.34.79A7.26,7.26,0,0,1,257.77,183.09Z"/><path class="cls-36" d="M251.65,132.19s-2.65.47-3.25,2-4,26.89-4,26.89,1.68,1.33,5.28.85S251.65,132.19,251.65,132.19Z"/><path class="cls-14" d="M247.7,182a1.77,1.77,0,0,1-.23,1.05h-6.59a1.13,1.13,0,0,1,1-.71,5,5,0,0,0,2.67-1.23,2.11,2.11,0,0,0,.51-.94c.31-1.38,2.57.43,2.57.43A10.56,10.56,0,0,1,247.7,182Z"/><path class="cls-14" d="M244.86,181.37c.74.23,2.15.95,3,.61.58-.22,3.81-9.56,4-13.65a9.9,9.9,0,0,1,.17-1.22c.19-1.05.52-2.5.91-4.1,1-4.29,2.43-9.65,2.4-11.36-.05-2.66-7.93-.56-7.93-.56a28.63,28.63,0,0,0-.65,5.34c-.21,6.27-.8,16.86-2.4,24.22A.64.64,0,0,0,244.86,181.37Z"/><path class="cls-17" d="M250.33,151.66l4.17,30.19a8.19,8.19,0,0,0,3.25.09S259,165.88,258.87,162s.87-10.39-.22-11.11S250.33,151.66,250.33,151.66Z"/><path class="cls-5" d="M259.17,133.57s-4.38-2.83-7.52-1.38a5.89,5.89,0,0,0-1.48,1.32c-1.13,1.26-3.35,21.12-3.35,21.12a18.18,18.18,0,0,0,12.35-.72Z"/><path class="cls-36" d="M251.41,132.12s-4.44,1.81-5,3.21a85.6,85.6,0,0,0-2.55,11c0,1,3.4.22,4-1.4.45-1.34,2-5.48,2.79-8.09Z"/><path class="cls-22" d="M252.33,133.5a5,5,0,0,0,3.42-.7,10.22,10.22,0,0,1-.73-2.58.28.28,0,0,0,0-.09,3,3,0,0,1,0-.59h-2.5s-.68.32-.68.53,0,.23,0,.33c0,.29,0,.54,0,.76a7,7,0,0,1-.13,1S251.35,133.31,252.33,133.5Z"/><path class="cls-37" d="M251.78,131.16a3.44,3.44,0,0,0,3.24-.94l.06-.06-.07,0a6,6,0,0,0-3.2.27C251.81,130.69,251.8,130.94,251.78,131.16Z"/><path class="cls-22" d="M255.64,129.13c-.34,1.82-2.69,1.76-3.7,1.65a4.55,4.55,0,0,1-.47-.07c-.32-.09-.5-.59-.59-1.26a10.52,10.52,0,0,1,.27-3.74c.34-.75,1-1.55,3.33-1S256.08,126.8,255.64,129.13Z"/><path class="cls-14" d="M251.06,124.69a5.45,5.45,0,0,1,1.64-1.33,4,4,0,0,1,3.06,0c1.93.85,2.44,2.33,1.41,4.64s-2.12,2.16-2.12,2.16.22-.13.2-.89v-.11a.51.51,0,0,1,.16-.42c.24-.21.36-.86.15-1s-.58,0-.69.25a.29.29,0,0,1-.42.09c-.6-.38-.21-1.14-.79-1.61s-1.74-.07-2.6-.44C249.93,125.59,250.82,125,251.06,124.69Z"/><path class="cls-38" d="M250.79,163c.38.09.76.18,1.14.24s.66.1,1,.12a16,16,0,0,0,6-.73c.5-.14,1-.3,1.54-.48.06,0-.14-5.83-.37-11.83,0-.62-.05-1.24-.08-1.86l0-.78c-.21-5.31-.42-10.1-.46-10.36-.1-.58-.2-1.08-.3-1.51a3.83,3.83,0,0,0-1.48-2.54c-.08-.06-.73-.39-1.3-.67l-.9-.44h0a2.47,2.47,0,0,0-.65,1.13,38.16,38.16,0,0,0-1.23,4.11h0c-.21.83-.37,1.47-.41,1.66s-.17.91-.28,1.73c-.16,1.11-.34,2.62-.53,4.34l-.06.53c0,.21-.05.42-.07.63l0,.2c-.07.68-.15,1.38-.22,2.09s-1,1-1,1.62c0,.35-.11,3.59-.2,4.63C250.72,155.54,250.77,162.62,250.79,163Z"/><path class="cls-36" d="M257.25,139.43s.16,5.36-3.87,6-1.35.82-1.35.82,7.57-.32,7.7-.52S257.25,139.43,257.25,139.43Z"/><path class="cls-36" d="M253.85,147.74l.22.15h0a18.39,18.39,0,0,0,5.09,2.18l.87.22c0-.62-.05-1.24-.08-1.86a7.53,7.53,0,0,0,1-.14l0-.24c-.34-.14-.67-.28-1-.4l-.76-.3c-1.09-.41-1.9-.69-1.9-.69l-3.22,1Z"/><path class="cls-38" d="M253,147.65s.41.11,1.07.24h0a25.89,25.89,0,0,0,5.09.57c.27,0,.54,0,.79,0a7.53,7.53,0,0,0,1-.14,3.15,3.15,0,0,0,1.6-.75c2.72-2.77-1.49-12.72-2.37-13.68a6.87,6.87,0,0,0-4-1.67h-.12a4.87,4.87,0,0,0-.62-.05h0l.22.7c0,.17.12.37.18.6.64,2.09,1.87,6.2,2.42,8.52a5.68,5.68,0,0,1,.25,1.64c-.21.79-2.4,1.2-3.8,1.38-.58.07-1,.11-1.12.11h0l-.08.33-.19.79-.19.78Z"/><polygon class="cls-26" points="245.41 152.42 254.75 152.03 252.86 140.38 243.52 140.78 245.41 152.42"/><path class="cls-22" d="M253.62,145.09s-1.82-.13-1.91.29c-.21,1,1.57,1.8,2.14,1.75S254,145,253.62,145.09Z"/><path class="cls-22" d="M244,143.14s1.74-.54,1.92-.15c.44.91-1.1,2.11-1.67,2.19S243.6,143.18,244,143.14Z"/><path class="cls-36" d="M255.3,131.54a2.16,2.16,0,0,1,1.25.7s-3,5.18-2.94,5.13S254.57,132.18,255.3,131.54Z"/><path class="cls-36" d="M251.74,131.61a2.24,2.24,0,0,0-.84.86l-.34,4.34s.72-3.18,1.09-4.62A2.12,2.12,0,0,0,251.74,131.61Z"/><path class="cls-39" d="M249.76,140.52a.42.42,0,0,0-.5-.29c-.42,0-2.81.16-2.81.16s-.46,0-.42.28Z"/></g></g></svg>